<?xml version="1.0" standalone="no"?>
<!DOCTYPE svg PUBLIC "-//W3C//DTD SVG 20010904//EN"
 "http://www.w3.org/TR/2001/REC-SVG-20010904/DTD/svg10.dtd">
<svg version="1.0" xmlns="http://www.w3.org/2000/svg"
 width="1052.000000pt" height="312.000000pt" viewBox="0 0 1052.000000 312.000000"
 preserveAspectRatio="xMidYMid meet">

<g transform="translate(0.000000,312.000000) scale(0.100000,-0.100000)"
fill="#000000" stroke="none">
<path d="M2663 2685 c-369 -67 -646 -321 -743 -680 -28 -102 -39 -376 -20
-493 28 -174 85 -310 180 -424 158 -189 777 -814 799 -806 20 7 593 572 723
713 120 129 146 163 183 240 134 275 136 660 5 934 -132 276 -381 463 -687
516 -105 18 -340 18 -440 0z m340 -380 c188 -49 329 -206 373 -415 25 -117 15
-341 -19 -439 -14 -41 -37 -90 -50 -108 -41 -57 -199 -232 -315 -346 l-109
-108 -162 167 c-186 191 -262 282 -291 346 -37 84 -52 176 -52 308 1 202 48
340 156 457 118 127 303 181 469 138z"/>
<path d="M130 1691 l0 -961 225 0 225 0 0 335 0 335 233 0 c413 0 610 50 762
191 119 112 161 240 152 468 -7 173 -33 258 -111 354 -61 76 -187 151 -306
182 -164 43 -212 47 -702 52 l-478 5 0 -961z m843 569 c144 -14 230 -59 263
-137 18 -42 18 -164 0 -206 -30 -70 -114 -120 -232 -137 -38 -5 -149 -10 -246
-10 l-178 0 0 250 0 250 148 0 c81 0 191 -5 245 -10z"/>
<path d="M4120 1690 l0 -960 685 0 685 0 0 200 0 200 -460 0 -460 0 0 760 0
760 -225 0 -225 0 0 -960z"/>
<path d="M6730 2033 c0 -741 5 -791 97 -983 83 -172 208 -269 418 -322 81 -21
113 -23 315 -22 199 0 234 3 305 22 276 76 421 239 487 551 19 90 21 139 25
734 l5 637 -231 0 -231 0 0 -617 c0 -371 -4 -644 -10 -683 -15 -92 -61 -181
-113 -220 -66 -49 -130 -63 -266 -58 -137 5 -199 27 -257 90 -89 99 -93 139
-94 876 l0 612 -225 0 -225 0 0 -617z"/>
<path d="M8586 2638 c4 -6 146 -206 315 -444 169 -238 315 -444 324 -457 16
-25 12 -30 -326 -503 -188 -264 -346 -485 -351 -491 -8 -10 46 -13 263 -13
l274 0 210 300 c116 164 212 299 215 300 3 0 102 -135 219 -300 l213 -300 273
0 273 0 -352 492 -352 493 150 210 c82 116 232 326 332 468 l183 257 -272 0
-272 0 -195 -275 c-154 -216 -197 -272 -207 -262 -7 6 -95 129 -196 272 l-184
260 -272 3 c-209 2 -271 0 -265 -10z"/>
<path d="M5600 1445 l0 -185 465 0 465 0 0 185 0 185 -465 0 -465 0 0 -185z"/>
</g>
</svg>
